<mxfile host="app.diagrams.net" agent="Mozilla/5.0 (Windows NT 10.0; Win64; x64) AppleWebKit/537.36 (KHTML, like Gecko) Chrome/127.0.0.0 Safari/537.36" version="24.7.7">
  <diagram name="Page-1" id="VPBHvgm0iUCaenb_yaMg">
    <mxGraphModel dx="1432" dy="2786" grid="1" gridSize="10" guides="1" tooltips="1" connect="1" arrows="1" fold="1" page="1" pageScale="1" pageWidth="1500" pageHeight="2000" math="0" shadow="0">
      <root>
        <mxCell id="0" />
        <mxCell id="1" parent="0" />
        <mxCell id="qzaW7OHb3ruYSuh4Dne6-4" value="" style="edgeStyle=orthogonalEdgeStyle;rounded=0;orthogonalLoop=1;jettySize=auto;html=1;" edge="1" parent="1" source="qzaW7OHb3ruYSuh4Dne6-1" target="qzaW7OHb3ruYSuh4Dne6-6">
          <mxGeometry relative="1" as="geometry">
            <mxPoint x="475" y="205" as="targetPoint" />
          </mxGeometry>
        </mxCell>
        <mxCell id="qzaW7OHb3ruYSuh4Dne6-1" value="BIM -CDE" style="whiteSpace=wrap;html=1;aspect=fixed;" vertex="1" parent="1">
          <mxGeometry x="150" y="110" width="190" height="190" as="geometry" />
        </mxCell>
        <mxCell id="qzaW7OHb3ruYSuh4Dne6-12" value="" style="edgeStyle=orthogonalEdgeStyle;rounded=0;orthogonalLoop=1;jettySize=auto;html=1;" edge="1" parent="1" source="qzaW7OHb3ruYSuh4Dne6-6" target="qzaW7OHb3ruYSuh4Dne6-11">
          <mxGeometry relative="1" as="geometry" />
        </mxCell>
        <mxCell id="qzaW7OHb3ruYSuh4Dne6-14" value="" style="edgeStyle=orthogonalEdgeStyle;rounded=0;orthogonalLoop=1;jettySize=auto;html=1;" edge="1" parent="1" source="qzaW7OHb3ruYSuh4Dne6-6" target="qzaW7OHb3ruYSuh4Dne6-13">
          <mxGeometry relative="1" as="geometry" />
        </mxCell>
        <mxCell id="qzaW7OHb3ruYSuh4Dne6-16" value="" style="edgeStyle=orthogonalEdgeStyle;rounded=0;orthogonalLoop=1;jettySize=auto;html=1;" edge="1" parent="1" source="qzaW7OHb3ruYSuh4Dne6-6" target="qzaW7OHb3ruYSuh4Dne6-15">
          <mxGeometry relative="1" as="geometry" />
        </mxCell>
        <mxCell id="qzaW7OHb3ruYSuh4Dne6-6" value="" style="strokeWidth=2;html=1;shape=mxgraph.flowchart.annotation_2;align=left;labelPosition=right;pointerEvents=1;" vertex="1" parent="1">
          <mxGeometry x="450" y="155" width="50" height="100" as="geometry" />
        </mxCell>
        <mxCell id="qzaW7OHb3ruYSuh4Dne6-11" value="BIM Collab" style="rounded=1;whiteSpace=wrap;html=1;align=left;strokeWidth=2;pointerEvents=1;" vertex="1" parent="1">
          <mxGeometry x="545" y="175" width="120" height="60" as="geometry" />
        </mxCell>
        <mxCell id="qzaW7OHb3ruYSuh4Dne6-13" value="Map Porfolio" style="whiteSpace=wrap;html=1;align=left;strokeWidth=2;pointerEvents=1;" vertex="1" parent="1">
          <mxGeometry x="415" y="-5" width="120" height="60" as="geometry" />
        </mxCell>
        <mxCell id="qzaW7OHb3ruYSuh4Dne6-15" value="BCF Room Meeting" style="rounded=1;whiteSpace=wrap;html=1;align=left;strokeWidth=2;pointerEvents=1;" vertex="1" parent="1">
          <mxGeometry x="415" y="355" width="120" height="60" as="geometry" />
        </mxCell>
        <mxCell id="qzaW7OHb3ruYSuh4Dne6-34" value="" style="edgeStyle=orthogonalEdgeStyle;rounded=0;orthogonalLoop=1;jettySize=auto;html=1;" edge="1" parent="1" source="qzaW7OHb3ruYSuh4Dne6-32" target="qzaW7OHb3ruYSuh4Dne6-33">
          <mxGeometry relative="1" as="geometry" />
        </mxCell>
        <mxCell id="qzaW7OHb3ruYSuh4Dne6-32" value="website" style="verticalAlign=top;align=left;spacingTop=8;spacingLeft=2;spacingRight=12;shape=cube;size=10;direction=south;fontStyle=4;html=1;whiteSpace=wrap;" vertex="1" parent="1">
          <mxGeometry x="80" y="500" width="180" height="120" as="geometry" />
        </mxCell>
        <mxCell id="qzaW7OHb3ruYSuh4Dne6-33" value="&lt;ol&gt;&lt;li&gt;Language : typescript&lt;/li&gt;&lt;li&gt;Framework : Vite/React&lt;/li&gt;&lt;li&gt;Library : @thatopen&lt;/li&gt;&lt;li&gt;Tailwind, @shadnui&lt;/li&gt;&lt;/ol&gt;" style="whiteSpace=wrap;html=1;align=left;verticalAlign=top;spacingTop=8;spacingLeft=2;spacingRight=12;fontStyle=4;" vertex="1" parent="1">
          <mxGeometry x="370" y="530" width="190" height="90" as="geometry" />
        </mxCell>
        <mxCell id="qzaW7OHb3ruYSuh4Dne6-37" value="" style="edgeStyle=orthogonalEdgeStyle;rounded=0;orthogonalLoop=1;jettySize=auto;html=1;" edge="1" parent="1" source="qzaW7OHb3ruYSuh4Dne6-35" target="qzaW7OHb3ruYSuh4Dne6-36">
          <mxGeometry relative="1" as="geometry" />
        </mxCell>
        <mxCell id="qzaW7OHb3ruYSuh4Dne6-35" value="room-server(bcf room meeting)" style="verticalAlign=top;align=left;spacingTop=8;spacingLeft=2;spacingRight=12;shape=cube;size=10;direction=south;fontStyle=4;html=1;whiteSpace=wrap;" vertex="1" parent="1">
          <mxGeometry x="80" y="680" width="180" height="120" as="geometry" />
        </mxCell>
        <mxCell id="qzaW7OHb3ruYSuh4Dne6-36" value="&lt;ol&gt;&lt;li&gt;Language : typescript&lt;/li&gt;&lt;li&gt;Framework : socketio&lt;/li&gt;&lt;li&gt;.......&lt;/li&gt;&lt;/ol&gt;" style="whiteSpace=wrap;html=1;align=left;verticalAlign=top;spacingTop=8;spacingLeft=2;spacingRight=12;fontStyle=4;" vertex="1" parent="1">
          <mxGeometry x="370" y="700" width="190" height="90" as="geometry" />
        </mxCell>
        <mxCell id="qzaW7OHb3ruYSuh4Dne6-40" value="" style="edgeStyle=orthogonalEdgeStyle;rounded=0;orthogonalLoop=1;jettySize=auto;html=1;" edge="1" parent="1" source="qzaW7OHb3ruYSuh4Dne6-38" target="qzaW7OHb3ruYSuh4Dne6-39">
          <mxGeometry relative="1" as="geometry" />
        </mxCell>
        <mxCell id="qzaW7OHb3ruYSuh4Dne6-38" value="peer-server(bcf room meeting)" style="verticalAlign=top;align=left;spacingTop=8;spacingLeft=2;spacingRight=12;shape=cube;size=10;direction=south;fontStyle=4;html=1;whiteSpace=wrap;" vertex="1" parent="1">
          <mxGeometry x="80" y="850" width="180" height="120" as="geometry" />
        </mxCell>
        <mxCell id="qzaW7OHb3ruYSuh4Dne6-39" value="&lt;ol&gt;&lt;li&gt;Language : typescript&lt;/li&gt;&lt;li&gt;Framework : peer.js&lt;/li&gt;&lt;li&gt;.......&lt;/li&gt;&lt;/ol&gt;" style="whiteSpace=wrap;html=1;align=left;verticalAlign=top;spacingTop=8;spacingLeft=2;spacingRight=12;fontStyle=4;" vertex="1" parent="1">
          <mxGeometry x="370" y="870" width="190" height="90" as="geometry" />
        </mxCell>
        <mxCell id="qzaW7OHb3ruYSuh4Dne6-44" value="" style="edgeStyle=orthogonalEdgeStyle;rounded=0;orthogonalLoop=1;jettySize=auto;html=1;" edge="1" parent="1" source="qzaW7OHb3ruYSuh4Dne6-41" target="qzaW7OHb3ruYSuh4Dne6-43">
          <mxGeometry relative="1" as="geometry" />
        </mxCell>
        <mxCell id="qzaW7OHb3ruYSuh4Dne6-41" value="server-tiles(manage, upload)" style="verticalAlign=top;align=left;spacingTop=8;spacingLeft=2;spacingRight=12;shape=cube;size=10;direction=south;fontStyle=4;html=1;whiteSpace=wrap;" vertex="1" parent="1">
          <mxGeometry x="80" y="1050" width="180" height="120" as="geometry" />
        </mxCell>
        <mxCell id="qzaW7OHb3ruYSuh4Dne6-46" value="" style="edgeStyle=orthogonalEdgeStyle;rounded=0;orthogonalLoop=1;jettySize=auto;html=1;" edge="1" parent="1" source="qzaW7OHb3ruYSuh4Dne6-42" target="qzaW7OHb3ruYSuh4Dne6-45">
          <mxGeometry relative="1" as="geometry" />
        </mxCell>
        <mxCell id="qzaW7OHb3ruYSuh4Dne6-42" value="derivative (cde editor)" style="verticalAlign=top;align=left;spacingTop=8;spacingLeft=2;spacingRight=12;shape=cube;size=10;direction=south;fontStyle=4;html=1;whiteSpace=wrap;" vertex="1" parent="1">
          <mxGeometry x="80" y="1270" width="180" height="120" as="geometry" />
        </mxCell>
        <mxCell id="qzaW7OHb3ruYSuh4Dne6-43" value="&lt;ol&gt;&lt;li&gt;Language : typescript&lt;/li&gt;&lt;li&gt;Framework : express&lt;/li&gt;&lt;li&gt;DB: Postgres&lt;/li&gt;&lt;li&gt;Library : drizzel&amp;nbsp;&lt;/li&gt;&lt;/ol&gt;" style="whiteSpace=wrap;html=1;align=left;verticalAlign=top;spacingTop=8;spacingLeft=2;spacingRight=12;fontStyle=4;" vertex="1" parent="1">
          <mxGeometry x="360" y="1065" width="190" height="90" as="geometry" />
        </mxCell>
        <mxCell id="qzaW7OHb3ruYSuh4Dne6-45" value="&lt;ol&gt;&lt;li&gt;Language : typescript&lt;/li&gt;&lt;li&gt;Framework : Rabbit MQ&lt;/li&gt;&lt;li&gt;Library ; web-ifc&lt;/li&gt;&lt;li&gt;Worker&lt;/li&gt;&lt;/ol&gt;" style="whiteSpace=wrap;html=1;align=left;verticalAlign=top;spacingTop=8;spacingLeft=2;spacingRight=12;fontStyle=4;" vertex="1" parent="1">
          <mxGeometry x="355" y="1280" width="190" height="90" as="geometry" />
        </mxCell>
        <mxCell id="qzaW7OHb3ruYSuh4Dne6-47" value="Cloud Storage&lt;div&gt;(AWS S3)&lt;/div&gt;" style="ellipse;shape=cloud;whiteSpace=wrap;html=1;" vertex="1" parent="1">
          <mxGeometry x="80" y="1510" width="170" height="120" as="geometry" />
        </mxCell>
      </root>
    </mxGraphModel>
  </diagram>
</mxfile>
